<svg xmlns="http://www.w3.org/2000/svg" viewBox="0 0 130 55">
  <defs><linearGradient id="dual-grad" x1="0%" y1="0%" x2="100%" y2="100%"><stop offset="0%" stop-color="#F0C060"/><stop offset="100%" stop-color="#D4942A"/></linearGradient></defs>
  <g fill="url(#dual-grad)">
    <rect x="4" y="20" width="48" height="7" rx="2"/>
    <rect x="52" y="16" width="28" height="13" rx="3"/>
    <rect x="66" y="29" width="7" height="12" rx="1.5"/>
    <path d="M66 29 Q68 35 72 37 Q76 37 78 31 L78 29Z" opacity="0.8"/>
    <rect x="74" y="29" width="5" height="12" rx="1.5"/>
    <rect x="84" y="26" width="40" height="7" rx="2"/>
    <rect x="86" y="22" width="28" height="13" rx="3"/>
    <rect x="100" y="33" width="7" height="12" rx="1.5"/>
    <path d="M100 33 Q102 39 106 41 Q110 41 112 35 L112 33Z" opacity="0.8"/>
    <rect x="108" y="33" width="5" height="12" rx="1.5"/>
  </g>
</svg>
