<svg xmlns="http://www.w3.org/2000/svg" viewBox="0 0 160 60">
  <defs><linearGradient id="mp9-grad" x1="0%" y1="0%" x2="100%" y2="100%"><stop offset="0%" stop-color="#F0C060"/><stop offset="100%" stop-color="#D4942A"/></linearGradient></defs>
  <g fill="url(#mp9-grad)">
    <rect x="4" y="28" width="60" height="8" rx="2"/>
    <rect x="16" y="24" width="30" height="4" rx="1.5" opacity="0.6"/>
    <rect x="64" y="24" width="40" height="14" rx="3"/>
    <rect x="76" y="20" width="3" height="6" rx="1"/>
    <rect x="84" y="38" width="8" height="16" rx="1.5"/>
    <rect x="4" y="14" width="10" height="14" rx="2" opacity="0.7"/>
    <rect x="104" y="26" width="44" height="8" rx="3"/>
    <rect x="142" y="26" width="7" height="14" rx="2"/>
    <path d="M80 38 Q82 44 86 46 Q90 46 92 42 L92 38Z" opacity="0.85"/>
    <rect x="88" y="38" width="6" height="14" rx="2"/>
  </g>
</svg>
