<svg xmlns="http://www.w3.org/2000/svg" viewBox="0 0 220 65">
  <defs><linearGradient id="scar-grad" x1="0%" y1="0%" x2="100%" y2="100%"><stop offset="0%" stop-color="#F0C060"/><stop offset="100%" stop-color="#D4942A"/></linearGradient></defs>
  <g fill="url(#scar-grad)">
    <rect x="4" y="28" width="98" height="9" rx="2"/>
    <rect x="6" y="20" width="40" height="8" rx="2"/>
    <rect x="60" y="18" width="30" height="10" rx="2"/>
    <ellipse cx="75" cy="18" rx="6" ry="3" opacity="0.5"/>
    <rect x="102" y="24" width="48" height="16" rx="3"/>
    <rect x="126" y="40" width="10" height="18" rx="2"/>
    <rect x="150" y="26" width="56" height="10" rx="4"/>
    <rect x="200" y="26" width="8" height="18" rx="2"/>
    <path d="M134 40 Q136 48 140 50 Q144 50 146 44 L146 40Z" opacity="0.85"/>
    <rect x="142" y="40" width="8" height="18" rx="2.5"/>
  </g>
</svg>
